<?xml version="1.0" encoding="UTF-8" standalone="no"?>
<!-- Created with Inkscape (http://www.inkscape.org/) -->

<svg
   width="251.09625mm"
   height="79.375008mm"
   viewBox="0 0 251.09625 79.375008"
   version="1.1"
   id="svg5"
   inkscape:version="1.2.1 (9c6d41e410, 2022-07-14)"
   sodipodi:docname="vgen.svg"
   xmlns:inkscape="http://www.inkscape.org/namespaces/inkscape"
   xmlns:sodipodi="http://sodipodi.sourceforge.net/DTD/sodipodi-0.dtd"
   xmlns="http://www.w3.org/2000/svg"
   xmlns:svg="http://www.w3.org/2000/svg">
  <sodipodi:namedview
     id="namedview7"
     pagecolor="#979797"
     bordercolor="#000000"
     borderopacity="0.25"
     inkscape:showpageshadow="2"
     inkscape:pageopacity="0"
     inkscape:pagecheckerboard="0"
     inkscape:deskcolor="#d1d1d1"
     inkscape:document-units="mm"
     showgrid="false"
     inkscape:zoom="0.76791526"
     inkscape:cx="479.21954"
     inkscape:cy="104.17816"
     inkscape:window-width="1920"
     inkscape:window-height="1017"
     inkscape:window-x="1912"
     inkscape:window-y="-8"
     inkscape:window-maximized="1"
     inkscape:current-layer="layer1" />
  <defs
     id="defs2">
    <rect
       x="648.50903"
       y="285.18771"
       width="205.75188"
       height="265.6543"
       id="rect566" />
    <rect
       x="610.74445"
       y="293.00107"
       width="373.73914"
       height="364.62357"
       id="rect560" />
    <rect
       x="648.50903"
       y="285.18771"
       width="302.55469"
       height="262.89276"
       id="rect566-0" />
    <rect
       x="648.50903"
       y="285.18771"
       width="302.55469"
       height="262.89276"
       id="rect566-0-8" />
  </defs>
  <g
     inkscape:label="Layer 1"
     inkscape:groupmode="layer"
     id="layer1"
     transform="translate(-35.143591,-79.590479)">
    <path
       id="rect504"
       style="fill:#00c9ff;stroke-width:0.529167;stroke-linecap:round;fill-opacity:1"
       d="M 35.143591,79.590491 V 158.96549 H 114.51859 V 79.590491 Z m 5.052922,4.854484 H 51.090422 L 75.08844,145.73632 99.085942,84.444975 H 109.46619 L 81.614657,154.11101 H 68.048043 Z" />
    <text
       xml:space="preserve"
       transform="scale(0.26458333)"
       id="text558"
       style="font-size:21.3333px;font-family:MORTAL;-inkscape-font-specification:MORTAL;white-space:pre;shape-inside:url(#rect560);display:inline;fill:#ffffff;stroke-width:2;stroke-linecap:round" />
    <g
       aria-label="GEN"
       transform="matrix(1.1197294,0,0,1.0804828,-562.16111,-229.25965)"
       id="text564-1"
       style="font-size:48.564px;font-family:MORTAL;-inkscape-font-specification:MORTAL;white-space:pre;shape-inside:url(#rect566-0);display:inline;fill:#00c9ff;stroke-width:2;stroke-linecap:round;fill-opacity:1">
      <path
         d="m 684.24509,327.47831 q -2.37129,0.92481 -6.28391,1.84961 -3.91263,0.90109 -7.80155,0.90109 -9.01089,0 -14.10917,-4.88486 -5.09827,-4.90857 -5.09827,-13.54006 0,-8.22837 5.1457,-13.2555 5.1457,-5.05085 14.3463,-5.05085 3.48579,0 6.63961,0.64025 3.15381,0.61653 7.01901,2.48985 v 8.2758 h -1.01965 q -0.66396,-0.49797 -1.94446,-1.39906 -1.28049,-0.9248 -2.46614,-1.56505 -1.37535,-0.75881 -3.22495,-1.30421 -1.82589,-0.5454 -3.88892,-0.5454 -2.41871,0 -4.38688,0.71139 -1.96817,0.71139 -3.53322,2.18159 -1.49391,1.42277 -2.37129,3.62807 -0.85366,2.18159 -0.85366,5.05085 0,5.85708 3.10639,8.96347 3.10638,3.10639 9.17688,3.10639 0.52169,0 1.13822,-0.0237 0.64025,-0.0237 1.16193,-0.0711 v -6.92416 h -7.04272 v -6.66332 h 16.29075 z"
         style="font-weight:bold;-inkscape-font-specification:'MORTAL Bold';fill:#00c9ff;fill-opacity:1"
         id="path246" />
      <path
         d="m 717.94111,329.49391 h -25.53878 v -35.30849 h 25.53878 v 6.82931 h -16.48046 v 6.09421 h 15.29481 v 6.82931 h -15.29481 v 8.72635 h 16.48046 z"
         style="font-weight:bold;-inkscape-font-specification:'MORTAL Bold';fill:#00c9ff;fill-opacity:1"
         id="path248" />
      <path
         d="m 757.68392,329.49391 h -8.77377 L 733.9236,305.25933 v 24.23458 h -8.34694 v -35.30849 h 10.88422 l 12.8761,20.22709 v -20.22709 h 8.34694 z"
         style="font-weight:bold;-inkscape-font-specification:'MORTAL Bold';fill:#00c9ff;fill-opacity:1"
         id="path250" />
    </g>
    <g
       aria-label="-"
       transform="matrix(1.7018596,0,0,2.1240717,-981.81422,-557.54876)"
       id="text564-1-9"
       style="font-size:48.564px;font-family:MORTAL;-inkscape-font-specification:MORTAL;white-space:pre;shape-inside:url(#rect566-0-8);display:inline;fill:#00c9ff;stroke-width:2;stroke-linecap:round;fill-opacity:1">
      <path
         d="m 666.93468,316.19098 h -14.79684 v -4.29204 h 14.79684 z"
         id="path253"
         style="fill:#00c9ff;fill-opacity:1" />
    </g>
    <g
       aria-label="GENERATOR - SET"
       id="text870"
       style="font-weight:bold;font-size:15.846px;font-family:MORTAL;-inkscape-font-specification:'MORTAL Bold';letter-spacing:0.529167px;fill:#00c9ff;stroke-width:0.330125;stroke-linecap:round;fill-opacity:1">
      <path
         d="m 130.20563,150.01393 q -0.77373,0.30175 -2.05038,0.60351 -1.27666,0.29402 -2.54557,0.29402 -2.94018,0 -4.6037,-1.59389 -1.66352,-1.60162 -1.66352,-4.418 0,-2.68484 1.67899,-4.32515 1.679,-1.64805 4.68107,-1.64805 1.13739,0 2.16645,0.20891 1.02906,0.20117 2.29024,0.81242 v 2.70032 h -0.3327 q -0.21665,-0.16249 -0.63446,-0.45651 -0.41782,-0.30175 -0.80468,-0.51066 -0.44877,-0.24759 -1.05228,-0.42555 -0.59577,-0.17796 -1.26891,-0.17796 -0.78921,0 -1.4314,0.23212 -0.6422,0.23212 -1.15286,0.71183 -0.48745,0.46424 -0.77373,1.18381 -0.27855,0.71183 -0.27855,1.64805 0,1.91111 1.01359,2.9247 1.01359,1.01359 2.99434,1.01359 0.17022,0 0.37139,-0.008 0.20891,-0.008 0.37913,-0.0232 v -2.2593 h -2.29798 v -2.17418 h 5.31552 z"
         id="path256"
         style="fill:#00c9ff;fill-opacity:1" />
      <path
         d="m 141.72951,150.6716 h -8.33308 v -11.52085 h 8.33308 v 2.22835 h -5.37743 v 1.98848 h 4.99057 v 2.22835 h -4.99057 v 2.84733 h 5.37743 z"
         id="path258"
         style="fill:#00c9ff;fill-opacity:1" />
      <path
         d="m 155.2264,150.6716 h -2.8628 l -4.88998,-7.90752 v 7.90752 h -2.72353 v -11.52085 h 3.55142 l 4.20136,6.59992 v -6.59992 h 2.72353 z"
         id="path260"
         style="fill:#00c9ff;fill-opacity:1" />
      <path
         d="m 167.02882,150.6716 h -8.33308 v -11.52085 h 8.33308 v 2.22835 h -5.37743 v 1.98848 h 4.99056 v 2.22835 h -4.99056 v 2.84733 h 5.37743 z"
         id="path262"
         style="fill:#00c9ff;fill-opacity:1" />
      <path
         d="m 176.51005,142.67896 q 0,-0.43328 -0.17796,-0.74278 -0.17796,-0.30949 -0.61125,-0.48745 -0.30175,-0.12379 -0.70409,-0.14701 -0.40234,-0.0309 -0.93622,-0.0309 h -1.07548 v 3.10265 h 0.913 q 0.71183,0 1.19155,-0.0696 0.47971,-0.0696 0.80468,-0.31723 0.30949,-0.23986 0.44876,-0.52614 0.14701,-0.29402 0.14701,-0.78147 z m 4.63464,7.99264 h -3.62879 l -3.14135,-4.22457 h -1.3695 v 4.22457 h -2.95565 v -11.52085 h 4.98282 q 1.02133,0 1.75637,0.11606 0.73505,0.11606 1.37724,0.50293 0.64994,0.38686 1.02906,1.00585 0.38687,0.61124 0.38687,1.53972 0,1.27666 -0.59577,2.08134 -0.58804,0.80468 -1.68674,1.33855 z"
         id="path264"
         style="fill:#00c9ff;fill-opacity:1" />
      <path
         d="m 193.62026,150.6716 h -3.07171 l -0.79694,-2.32893 h -4.271 l -0.79694,2.32893 h -2.99434 l 4.25552,-11.52085 h 3.41989 z m -4.58822,-4.44121 -1.41593,-4.13172 -1.41593,4.13172 z"
         id="path266"
         style="fill:#00c9ff;fill-opacity:1" />
      <path
         d="m 204.81917,141.3791 h -3.59785 v 9.2925 h -2.97112 v -9.2925 h -3.59785 v -2.22835 h 10.16682 z"
         id="path268"
         style="fill:#00c9ff;fill-opacity:1" />
      <path
         d="m 218.33927,144.91505 q 0,2.75448 -1.57841,4.37931 -1.57841,1.6171 -4.36384,1.6171 -2.77769,0 -4.3561,-1.6171 -1.57841,-1.62483 -1.57841,-4.37931 0,-2.7777 1.57841,-4.38706 1.57841,-1.61709 4.3561,-1.61709 2.76996,0 4.3561,1.61709 1.58615,1.60936 1.58615,4.38706 z m -3.93829,2.91696 q 0.43329,-0.52614 0.6422,-1.23797 0.20891,-0.71957 0.20891,-1.68673 0,-1.0368 -0.23986,-1.76411 -0.23986,-0.7273 -0.62672,-1.17607 -0.3946,-0.46424 -0.913,-0.67314 -0.51067,-0.20891 -1.06775,-0.20891 -0.56483,0 -1.06775,0.20117 -0.49519,0.20117 -0.913,0.66541 -0.38687,0.43329 -0.63446,1.19928 -0.23986,0.75826 -0.23986,1.76411 0,1.02906 0.23212,1.75636 0.23986,0.71957 0.62672,1.17607 0.38687,0.45651 0.90527,0.67315 0.5184,0.21664 1.09096,0.21664 0.57256,0 1.09096,-0.21664 0.5184,-0.22438 0.90526,-0.68862 z"
         id="path270"
         style="fill:#00c9ff;fill-opacity:1" />
      <path
         d="m 227.59611,142.67896 q 0,-0.43328 -0.17796,-0.74278 -0.17795,-0.30949 -0.61124,-0.48745 -0.30176,-0.12379 -0.7041,-0.14701 -0.40234,-0.0309 -0.93621,-0.0309 h -1.07549 v 3.10265 h 0.913 q 0.71184,0 1.19155,-0.0696 0.47971,-0.0696 0.80468,-0.31723 0.30949,-0.23986 0.44876,-0.52614 0.14701,-0.29402 0.14701,-0.78147 z m 4.63465,7.99264 h -3.6288 l -3.14134,-4.22457 h -1.36951 v 4.22457 h -2.95565 v -11.52085 h 4.98283 q 1.02132,0 1.75636,0.11606 0.73505,0.11606 1.37725,0.50293 0.64993,0.38686 1.02906,1.00585 0.38686,0.61124 0.38686,1.53972 0,1.27666 -0.59577,2.08134 -0.58804,0.80468 -1.68673,1.33855 z"
         id="path272"
         style="fill:#00c9ff;fill-opacity:1" />
      <path
         d="m 245.28966,146.66368 h -5.90357 v -2.22835 h 5.90357 z"
         id="path274"
         style="fill:#00c9ff;fill-opacity:1" />
      <path
         d="m 263.30816,147.05054 q 0,1.70221 -1.44688,2.76996 -1.43914,1.06001 -3.91507,1.06001 -1.4314,0 -2.49915,-0.2476 -1.06001,-0.25533 -1.98849,-0.64219 v -2.76222 h 0.32497 q 0.92074,0.73504 2.05812,1.12965 1.14512,0.3946 2.19739,0.3946 0.27081,0 0.71184,-0.0464 0.44102,-0.0464 0.71957,-0.15474 0.34044,-0.13927 0.55708,-0.34818 0.22438,-0.20891 0.22438,-0.61898 0,-0.37913 -0.32496,-0.64994 -0.31723,-0.27854 -0.93622,-0.42555 -0.64993,-0.15475 -1.37724,-0.28628 -0.71957,-0.13927 -1.35403,-0.34818 -1.45461,-0.47197 -2.09681,-1.27665 -0.63445,-0.81242 -0.63445,-2.0117 0,-1.60936 1.43913,-2.62295 1.44688,-1.02132 3.71391,-1.02132 1.13738,0 2.24382,0.22438 1.11417,0.21664 1.92659,0.54935 v 2.65389 h -0.31723 q -0.69636,-0.55708 -1.70995,-0.92847 -1.00585,-0.37913 -2.05812,-0.37913 -0.37139,0 -0.74278,0.0542 -0.36365,0.0464 -0.70409,0.18569 -0.30176,0.11606 -0.5184,0.35592 -0.21665,0.23212 -0.21665,0.53387 0,0.45651 0.34818,0.7041 0.34818,0.23986 1.31534,0.44103 0.63446,0.13153 1.21476,0.25533 0.58803,0.12379 1.26118,0.34044 1.32308,0.43329 1.9498,1.18381 0.63446,0.74278 0.63446,1.93432 z"
         id="path276"
         style="fill:#00c9ff;fill-opacity:1" />
      <path
         d="m 274.20531,150.6716 h -8.33308 v -11.52085 h 8.33308 v 2.22835 h -5.37743 v 1.98848 h 4.99057 v 2.22835 h -4.99057 v 2.84733 h 5.37743 z"
         id="path278"
         style="fill:#00c9ff;fill-opacity:1" />
      <path
         d="M 286.23985,141.3791 H 282.642 v 9.2925 h -2.97113 v -9.2925 h -3.59784 v -2.22835 h 10.16682 z"
         id="path280"
         style="fill:#00c9ff;fill-opacity:1" />
    </g>
  </g>
</svg>
